# xmcd
#
# Track frame offsets:
# 150
# 12144
# 27469
# 42838
# 57895
# 71822
# 86802
# 99081
# 113857
# 127313
# 143616
# 157927
# 175768
# 192625
# 206429
# 221464
# 237209
# 252270
# 266816
# 282466
#
# Disc length: 3950 seconds
#
#
# Revision: 0
# Processed by: cddbd v1.5.2PL0 Copyright (c) Steve Scherf et al.
# Submitted via: FreeRIP 2.951 
#
DISCID=250f6c14
DTITLE=ESTACAO SERTANEJA - SERTANEJO
DYEAR=2007
DGENRE=SERTANEJO
TTITLE0=AGITO DO MEU POVO/RIO NEGRO E SOLIMOES
TTITLE1=E ISSO AI/EDUARDO COSTA
TTITLE2=E ISSO QUE A GALERA QUER/JULIANO CEZAR
TTITLE3=NAO POSSO TER MEDO DE AMAR/BRUNO E MARRONE
TTITLE4=CHORA CAROLINA/EMILIO E EDUARDO
TTITLE5=PRA NAO TE PERDER/MAYCK E LYAN
TTITLE6=SAPATEIA/ALAN E ALADIM
TTITLE7=HEI VOCE AI/EDSON E HUDSON
TTITLE8=DA BRIGA/FELIPE E FALCAO
TTITLE9=TE AMO/GIAN E GIOVANI
TTITLE10=DE LATINHA NA MAO/LEONARDO
TTITLE11=DEU SAUDADE/MARLON E MAICON
TTITLE12=EU E O SABIA/RICK E RENNER
TTITLE13=QUEBRADEIRA/DANIEL
TTITLE14=CHOREI POR ELA/MATOGROSSO E MATHIAS
TTITLE15=DANDO MOLE/GINO E GENO
TTITLE16=LEILAO/CESAR MENOTTI E FABIANO
TTITLE17=AMOR QUE FICA/ZEZE DE CAMARGO E LUCIANO
TTITLE18=VIDA PELO AVESSA/CHITAOZINHO E CHORORO
TTITLE19=VAMO QUEBAR TUDO/THULIO T THIGO
EXTD=
EXTT0=
EXTT1=
EXTT2=
EXTT3=
EXTT4=
EXTT5=
EXTT6=
EXTT7=
EXTT8=
EXTT9=
EXTT10=
EXTT11=
EXTT12=
EXTT13=
EXTT14=
EXTT15=
EXTT16=
EXTT17=
EXTT18=
EXTT19=
PLAYORDER=
